<?xml version="1.0" encoding="UTF-8" standalone="no"?>
<!DOCTYPE svg PUBLIC "-//W3C//DTD SVG 1.1//EN"
 "http://www.w3.org/Graphics/SVG/1.1/DTD/svg11.dtd">
<!-- Generated by graphviz version 8.1.0 (20230707.0739)
 -->
<!-- Title: AST Pages: 1 -->
<svg width="292pt" height="404pt"
 viewBox="0.00 0.00 291.55 404.00" xmlns="http://www.w3.org/2000/svg" xmlns:xlink="http://www.w3.org/1999/xlink">
<g id="graph0" class="graph" transform="scale(1 1) rotate(0) translate(4 400)">
<title>AST</title>
<polygon fill="white" stroke="none" points="-4,4 -4,-400 287.55,-400 287.55,4 -4,4"/>
<!-- 1 -->
<g id="node1" class="node">
<title>1</title>
<ellipse fill="none" stroke="black" cx="180.61" cy="-378" rx="27" ry="18"/>
<text text-anchor="middle" x="180.61" y="-372.57" font-family="Times New Roman,serif" font-size="14.00">s</text>
</g>
<!-- 2 -->
<g id="node2" class="node">
<title>2</title>
<ellipse fill="none" stroke="black" cx="136.61" cy="-306" rx="31.6" ry="18"/>
<text text-anchor="middle" x="136.61" y="-300.57" font-family="Times New Roman,serif" font-size="14.00">block</text>
</g>
<!-- 1&#45;&gt;2 -->
<g id="edge1" class="edge">
<title>1&#45;&gt;2</title>
<path fill="none" stroke="black" d="M170.63,-361.12C165.3,-352.64 158.62,-342.02 152.6,-332.43"/>
<polygon fill="black" stroke="black" points="155.15,-330.91 146.86,-324.31 149.22,-334.64 155.15,-330.91"/>
</g>
<!-- 10 -->
<g id="node10" class="node">
<title>10</title>
<ellipse fill="none" stroke="black" cx="225.61" cy="-306" rx="39.59" ry="18"/>
<text text-anchor="middle" x="225.61" y="-300.57" font-family="Times New Roman,serif" font-size="14.00">&lt;EOF&gt;</text>
</g>
<!-- 1&#45;&gt;10 -->
<g id="edge9" class="edge">
<title>1&#45;&gt;10</title>
<path fill="none" stroke="black" d="M190.82,-361.12C196.19,-352.77 202.9,-342.32 209,-332.84"/>
<polygon fill="black" stroke="black" points="212.35,-335.1 214.81,-324.8 206.46,-331.32 212.35,-335.1"/>
</g>
<!-- 3 -->
<g id="node3" class="node">
<title>3</title>
<ellipse fill="none" stroke="black" cx="136.61" cy="-234" rx="49.57" ry="18"/>
<text text-anchor="middle" x="136.61" y="-228.57" font-family="Times New Roman,serif" font-size="14.00">instruction</text>
</g>
<!-- 2&#45;&gt;3 -->
<g id="edge2" class="edge">
<title>2&#45;&gt;3</title>
<path fill="none" stroke="black" d="M136.61,-287.7C136.61,-280.24 136.61,-271.32 136.61,-262.97"/>
<polygon fill="black" stroke="black" points="140.11,-263.1 136.61,-253.1 133.11,-263.1 140.11,-263.1"/>
</g>
<!-- 4 -->
<g id="node4" class="node">
<title>4</title>
<ellipse fill="none" stroke="black" cx="136.61" cy="-162" rx="43.58" ry="18"/>
<text text-anchor="middle" x="136.61" y="-156.57" font-family="Times New Roman,serif" font-size="14.00">printstmt</text>
</g>
<!-- 3&#45;&gt;4 -->
<g id="edge3" class="edge">
<title>3&#45;&gt;4</title>
<path fill="none" stroke="black" d="M136.61,-215.7C136.61,-208.24 136.61,-199.32 136.61,-190.97"/>
<polygon fill="black" stroke="black" points="140.11,-191.1 136.61,-181.1 133.11,-191.1 140.11,-191.1"/>
</g>
<!-- 5 -->
<g id="node5" class="node">
<title>5</title>
<ellipse fill="none" stroke="black" cx="27.61" cy="-90" rx="27.61" ry="18"/>
<text text-anchor="middle" x="27.61" y="-84.58" font-family="Times New Roman,serif" font-size="14.00">print</text>
</g>
<!-- 4&#45;&gt;5 -->
<g id="edge4" class="edge">
<title>4&#45;&gt;5</title>
<path fill="none" stroke="black" d="M113.76,-146.33C96.86,-135.47 73.73,-120.62 55.7,-109.04"/>
<polygon fill="black" stroke="black" points="58.1,-105.78 47.79,-103.32 54.32,-111.67 58.1,-105.78"/>
</g>
<!-- 6 -->
<g id="node6" class="node">
<title>6</title>
<ellipse fill="none" stroke="black" cx="100.61" cy="-90" rx="27" ry="18"/>
<text text-anchor="middle" x="100.61" y="-84.58" font-family="Times New Roman,serif" font-size="14.00">(</text>
</g>
<!-- 4&#45;&gt;6 -->
<g id="edge5" class="edge">
<title>4&#45;&gt;6</title>
<path fill="none" stroke="black" d="M127.9,-144.05C123.72,-135.94 118.63,-126.04 113.99,-117.01"/>
<polygon fill="black" stroke="black" points="116.68,-115.6 109,-108.31 110.46,-118.8 116.68,-115.6"/>
</g>
<!-- 7 -->
<g id="node7" class="node">
<title>7</title>
<ellipse fill="none" stroke="black" cx="172.61" cy="-90" rx="27.11" ry="18"/>
<text text-anchor="middle" x="172.61" y="-84.58" font-family="Times New Roman,serif" font-size="14.00">expr</text>
</g>
<!-- 4&#45;&gt;7 -->
<g id="edge6" class="edge">
<title>4&#45;&gt;7</title>
<path fill="none" stroke="black" d="M145.33,-144.05C149.5,-135.94 154.59,-126.04 159.24,-117.01"/>
<polygon fill="black" stroke="black" points="162.76,-118.8 164.22,-108.31 156.54,-115.6 162.76,-118.8"/>
</g>
<!-- 9 -->
<g id="node9" class="node">
<title>9</title>
<ellipse fill="none" stroke="black" cx="244.61" cy="-90" rx="27" ry="18"/>
<text text-anchor="middle" x="244.61" y="-84.58" font-family="Times New Roman,serif" font-size="14.00">)</text>
</g>
<!-- 4&#45;&gt;9 -->
<g id="edge8" class="edge">
<title>4&#45;&gt;9</title>
<path fill="none" stroke="black" d="M159.25,-146.33C176,-135.47 198.91,-120.62 216.78,-109.04"/>
<polygon fill="black" stroke="black" points="218.12,-111.69 224.6,-103.32 214.31,-105.82 218.12,-111.69"/>
</g>
<!-- 8 -->
<g id="node8" class="node">
<title>8</title>
<ellipse fill="none" stroke="black" cx="172.61" cy="-18" rx="110.94" ry="18"/>
<text text-anchor="middle" x="172.61" y="-12.57" font-family="Times New Roman,serif" font-size="14.00">&quot;ssiiiiuuuuuuuuuux222222&quot;</text>
</g>
<!-- 7&#45;&gt;8 -->
<g id="edge7" class="edge">
<title>7&#45;&gt;8</title>
<path fill="none" stroke="black" d="M172.61,-71.7C172.61,-64.24 172.61,-55.32 172.61,-46.97"/>
<polygon fill="black" stroke="black" points="176.11,-47.1 172.61,-37.1 169.11,-47.1 176.11,-47.1"/>
</g>
</g>
</svg>
