<?xml version="1.0" encoding="UTF-8" standalone="no"?>
<!DOCTYPE svg PUBLIC "-//W3C//DTD SVG 1.1//EN"
 "http://www.w3.org/Graphics/SVG/1.1/DTD/svg11.dtd">
<!-- Generated by graphviz version 8.1.0 (20230707.0739)
 -->
<!-- Title: AST Pages: 1 -->
<svg width="168pt" height="116pt"
 viewBox="0.00 0.00 168.19 116.00" xmlns="http://www.w3.org/2000/svg" xmlns:xlink="http://www.w3.org/1999/xlink">
<g id="graph0" class="graph" transform="scale(1 1) rotate(0) translate(4 112)">
<title>AST</title>
<polygon fill="white" stroke="none" points="-4,4 -4,-112 164.19,-112 164.19,4 -4,4"/>
<!-- 1 -->
<g id="node1" class="node">
<title>1</title>
<ellipse fill="none" stroke="black" cx="75.6" cy="-90" rx="27" ry="18"/>
<text text-anchor="middle" x="75.6" y="-84.58" font-family="Times New Roman,serif" font-size="14.00">s</text>
</g>
<!-- 2 -->
<g id="node2" class="node">
<title>2</title>
<ellipse fill="none" stroke="black" cx="31.6" cy="-18" rx="31.6" ry="18"/>
<text text-anchor="middle" x="31.6" y="-12.57" font-family="Times New Roman,serif" font-size="14.00">block</text>
</g>
<!-- 1&#45;&gt;2 -->
<g id="edge1" class="edge">
<title>1&#45;&gt;2</title>
<path fill="none" stroke="black" d="M65.62,-73.12C60.29,-64.64 53.62,-54.02 47.59,-44.43"/>
<polygon fill="black" stroke="black" points="50.14,-42.91 41.85,-36.31 44.21,-46.64 50.14,-42.91"/>
</g>
<!-- 3 -->
<g id="node3" class="node">
<title>3</title>
<ellipse fill="none" stroke="black" cx="120.6" cy="-18" rx="39.59" ry="18"/>
<text text-anchor="middle" x="120.6" y="-12.57" font-family="Times New Roman,serif" font-size="14.00">&lt;EOF&gt;</text>
</g>
<!-- 1&#45;&gt;3 -->
<g id="edge2" class="edge">
<title>1&#45;&gt;3</title>
<path fill="none" stroke="black" d="M85.81,-73.12C91.18,-64.77 97.9,-54.32 103.99,-44.84"/>
<polygon fill="black" stroke="black" points="107.34,-47.1 109.8,-36.8 101.45,-43.32 107.34,-47.1"/>
</g>
</g>
</svg>
