<?xml version="1.0" encoding="UTF-8" standalone="no"?>
<!DOCTYPE svg PUBLIC "-//W3C//DTD SVG 1.1//EN"
 "http://www.w3.org/Graphics/SVG/1.1/DTD/svg11.dtd">
<!-- Generated by graphviz version 8.1.0 (20230707.0739)
 -->
<!-- Title: ErrorTable Pages: 1 -->
<svg width="1026pt" height="164pt"
 viewBox="0.00 0.00 1026.00 164.00" xmlns="http://www.w3.org/2000/svg" xmlns:xlink="http://www.w3.org/1999/xlink">
<g id="graph0" class="graph" transform="scale(1 1) rotate(0) translate(4 160)">
<title>ErrorTable</title>
<polygon fill="white" stroke="none" points="-4,4 -4,-160 1022,-160 1022,4 -4,4"/>
<!-- n1 -->
<g id="node1" class="node">
<title>n1</title>
<polygon fill="Peru" stroke="none" points="11,-127 11,-149 1007,-149 1007,-127 11,-127"/>
<polygon fill="none" stroke="black" points="11,-127 11,-149 1007,-149 1007,-127 11,-127"/>
<text text-anchor="start" x="485.38" y="-132.7" font-family="Helvetica,sans-Serif" font-size="14.00">Errores</text>
<polygon fill="orange" stroke="none" points="11,-103 11,-125 78,-125 78,-103 11,-103"/>
<polygon fill="none" stroke="black" points="11,-103 11,-125 78,-125 78,-103 11,-103"/>
<text text-anchor="start" x="30.25" y="-108.7" font-family="Helvetica,sans-Serif" font-size="14.00">Tipo</text>
<polygon fill="orange" stroke="none" points="80,-103 80,-125 122,-125 122,-103 80,-103"/>
<polygon fill="none" stroke="black" points="80,-103 80,-125 122,-125 122,-103 80,-103"/>
<text text-anchor="start" x="83" y="-108.7" font-family="Helvetica,sans-Serif" font-size="14.00">Línea</text>
<polygon fill="orange" stroke="none" points="124,-103 124,-125 186,-125 186,-103 124,-103"/>
<polygon fill="none" stroke="black" points="124,-103 124,-125 186,-125 186,-103 124,-103"/>
<text text-anchor="start" x="126.88" y="-108.7" font-family="Helvetica,sans-Serif" font-size="14.00">Columna</text>
<polygon fill="orange" stroke="none" points="188,-103 188,-125 1007,-125 1007,-103 188,-103"/>
<polygon fill="none" stroke="black" points="188,-103 188,-125 1007,-125 1007,-103 188,-103"/>
<text text-anchor="start" x="570.88" y="-108.7" font-family="Helvetica,sans-Serif" font-size="14.00">Mensaje</text>
<polygon fill="none" stroke="black" points="11,-79 11,-101 78,-101 78,-79 11,-79"/>
<text text-anchor="start" x="23.5" y="-84.7" font-family="Helvetica,sans-Serif" font-size="14.00">Lexico</text>
<polygon fill="none" stroke="black" points="80,-79 80,-101 122,-101 122,-79 80,-79"/>
<text text-anchor="start" x="96.88" y="-84.7" font-family="Helvetica,sans-Serif" font-size="14.00">1</text>
<polygon fill="none" stroke="black" points="124,-79 124,-101 186,-101 186,-79 124,-79"/>
<text text-anchor="start" x="150.88" y="-84.7" font-family="Helvetica,sans-Serif" font-size="14.00">0</text>
<polygon fill="none" stroke="black" points="188,-79 188,-101 1007,-101 1007,-79 188,-79"/>
<text text-anchor="start" x="505.25" y="-84.7" font-family="Helvetica,sans-Serif" font-size="14.00">token recognition error at: &#39;@&#39;</text>
<polygon fill="none" stroke="black" points="11,-55 11,-77 78,-77 78,-55 11,-55"/>
<text text-anchor="start" x="23.5" y="-60.7" font-family="Helvetica,sans-Serif" font-size="14.00">Lexico</text>
<polygon fill="none" stroke="black" points="80,-55 80,-77 122,-77 122,-55 80,-55"/>
<text text-anchor="start" x="96.88" y="-60.7" font-family="Helvetica,sans-Serif" font-size="14.00">1</text>
<polygon fill="none" stroke="black" points="124,-55 124,-77 186,-77 186,-55 124,-55"/>
<text text-anchor="start" x="150.88" y="-60.7" font-family="Helvetica,sans-Serif" font-size="14.00">1</text>
<polygon fill="none" stroke="black" points="188,-55 188,-77 1007,-77 1007,-55 188,-55"/>
<text text-anchor="start" x="505.25" y="-60.7" font-family="Helvetica,sans-Serif" font-size="14.00">token recognition error at: &#39;@&#39;</text>
<polygon fill="none" stroke="black" points="11,-31 11,-53 78,-53 78,-31 11,-31"/>
<text text-anchor="start" x="23.5" y="-36.7" font-family="Helvetica,sans-Serif" font-size="14.00">Lexico</text>
<polygon fill="none" stroke="black" points="80,-31 80,-53 122,-53 122,-31 80,-31"/>
<text text-anchor="start" x="96.88" y="-36.7" font-family="Helvetica,sans-Serif" font-size="14.00">1</text>
<polygon fill="none" stroke="black" points="124,-31 124,-53 186,-53 186,-31 124,-31"/>
<text text-anchor="start" x="150.88" y="-36.7" font-family="Helvetica,sans-Serif" font-size="14.00">2</text>
<polygon fill="none" stroke="black" points="188,-31 188,-53 1007,-53 1007,-31 188,-31"/>
<text text-anchor="start" x="505.25" y="-36.7" font-family="Helvetica,sans-Serif" font-size="14.00">token recognition error at: &#39;@&#39;</text>
<polygon fill="none" stroke="black" points="11,-7 11,-29 78,-29 78,-7 11,-7"/>
<text text-anchor="start" x="13.75" y="-12.7" font-family="Helvetica,sans-Serif" font-size="14.00">Sintactico</text>
<polygon fill="none" stroke="black" points="80,-7 80,-29 122,-29 122,-7 80,-7"/>
<text text-anchor="start" x="96.88" y="-12.7" font-family="Helvetica,sans-Serif" font-size="14.00">1</text>
<polygon fill="none" stroke="black" points="124,-7 124,-29 186,-29 186,-7 124,-7"/>
<text text-anchor="start" x="150.88" y="-12.7" font-family="Helvetica,sans-Serif" font-size="14.00">3</text>
<polygon fill="none" stroke="black" points="188,-7 188,-29 1007,-29 1007,-7 188,-7"/>
<text text-anchor="start" x="190.62" y="-12.7" font-family="Helvetica,sans-Serif" font-size="14.00">mismatched input &#39;&lt;EOF&gt;&#39; expecting {&#39;print&#39;, &#39;if&#39;, &#39;while&#39;, &#39;for&#39;, &#39;switch&#39;, &#39;var&#39;, &#39;let&#39;, &#39;break&#39;, &#39;continue&#39;, &#39;return&#39;, &#39;guard&#39;, &#39;func&#39;, &#39;struct&#39;, ID}</text>
<polygon fill="none" stroke="black" points="8,-4 8,-152 1010,-152 1010,-4 8,-4"/>
</g>
</g>
</svg>
