<?xml version="1.0" encoding="UTF-8" standalone="no"?>
<!DOCTYPE svg PUBLIC "-//W3C//DTD SVG 1.1//EN"
 "http://www.w3.org/Graphics/SVG/1.1/DTD/svg11.dtd">
<!-- Generated by graphviz version 8.1.0 (20230707.0739)
 -->
<!-- Title: ErrorTable Pages: 1 -->
<svg width="233pt" height="68pt"
 viewBox="0.00 0.00 233.00 68.00" xmlns="http://www.w3.org/2000/svg" xmlns:xlink="http://www.w3.org/1999/xlink">
<g id="graph0" class="graph" transform="scale(1 1) rotate(0) translate(4 64)">
<title>ErrorTable</title>
<polygon fill="white" stroke="none" points="-4,4 -4,-64 229,-64 229,4 -4,4"/>
<!-- n1 -->
<g id="node1" class="node">
<title>n1</title>
<polygon fill="Peru" stroke="none" points="11,-31 11,-53 214,-53 214,-31 11,-31"/>
<polygon fill="none" stroke="black" points="11,-31 11,-53 214,-53 214,-31 11,-31"/>
<text text-anchor="start" x="88.88" y="-36.7" font-family="Helvetica,sans-Serif" font-size="14.00">Errores</text>
<polygon fill="orange" stroke="none" points="11,-7 11,-29 45,-29 45,-7 11,-7"/>
<polygon fill="none" stroke="black" points="11,-7 11,-29 45,-29 45,-7 11,-7"/>
<text text-anchor="start" x="13.75" y="-12.7" font-family="Helvetica,sans-Serif" font-size="14.00">Tipo</text>
<polygon fill="orange" stroke="none" points="47,-7 47,-29 89,-29 89,-7 47,-7"/>
<polygon fill="none" stroke="black" points="47,-7 47,-29 89,-29 89,-7 47,-7"/>
<text text-anchor="start" x="50" y="-12.7" font-family="Helvetica,sans-Serif" font-size="14.00">Línea</text>
<polygon fill="orange" stroke="none" points="91,-7 91,-29 153,-29 153,-7 91,-7"/>
<polygon fill="none" stroke="black" points="91,-7 91,-29 153,-29 153,-7 91,-7"/>
<text text-anchor="start" x="93.88" y="-12.7" font-family="Helvetica,sans-Serif" font-size="14.00">Columna</text>
<polygon fill="orange" stroke="none" points="155,-7 155,-29 214,-29 214,-7 155,-7"/>
<polygon fill="none" stroke="black" points="155,-7 155,-29 214,-29 214,-7 155,-7"/>
<text text-anchor="start" x="157.88" y="-12.7" font-family="Helvetica,sans-Serif" font-size="14.00">Mensaje</text>
<polygon fill="none" stroke="black" points="8,-4 8,-56 217,-56 217,-4 8,-4"/>
</g>
</g>
</svg>
