<?xml version="1.0" encoding="UTF-8" standalone="no"?>
<!DOCTYPE svg PUBLIC "-//W3C//DTD SVG 1.1//EN"
 "http://www.w3.org/Graphics/SVG/1.1/DTD/svg11.dtd">
<!-- Generated by graphviz version 8.1.0 (20230707.0739)
 -->
<!-- Title: Table Pages: 1 -->
<svg width="509pt" height="116pt"
 viewBox="0.00 0.00 509.00 116.00" xmlns="http://www.w3.org/2000/svg" xmlns:xlink="http://www.w3.org/1999/xlink">
<g id="graph0" class="graph" transform="scale(1 1) rotate(0) translate(4 112)">
<title>Table</title>
<polygon fill="white" stroke="none" points="-4,4 -4,-112 505,-112 505,4 -4,4"/>
<!-- n1 -->
<g id="node1" class="node">
<title>n1</title>
<polygon fill="Peru" stroke="none" points="11,-79 11,-101 490,-101 490,-79 11,-79"/>
<polygon fill="none" stroke="black" points="11,-79 11,-101 490,-101 490,-79 11,-79"/>
<text text-anchor="start" x="232.88" y="-84.7" font-family="Helvetica,sans-Serif" font-size="14.00">Tabla</text>
<polygon fill="orange" stroke="none" points="11,-55 11,-77 32,-77 32,-55 11,-55"/>
<polygon fill="none" stroke="black" points="11,-55 11,-77 32,-77 32,-55 11,-55"/>
<text text-anchor="start" x="14" y="-60.7" font-family="Helvetica,sans-Serif" font-size="14.00">ID</text>
<polygon fill="orange" stroke="none" points="34,-55 34,-77 126,-77 126,-55 34,-55"/>
<polygon fill="none" stroke="black" points="34,-55 34,-77 126,-77 126,-55 34,-55"/>
<text text-anchor="start" x="36.88" y="-60.7" font-family="Helvetica,sans-Serif" font-size="14.00">Tipo Símbolo</text>
<polygon fill="orange" stroke="none" points="128,-55 128,-77 196,-77 196,-55 128,-55"/>
<polygon fill="none" stroke="black" points="128,-55 128,-77 196,-77 196,-55 128,-55"/>
<text text-anchor="start" x="130.88" y="-60.7" font-family="Helvetica,sans-Serif" font-size="14.00">Tipo Dato</text>
<polygon fill="orange" stroke="none" points="198,-55 198,-77 262,-77 262,-55 198,-55"/>
<polygon fill="none" stroke="black" points="198,-55 198,-77 262,-77 262,-55 198,-55"/>
<text text-anchor="start" x="207.5" y="-60.7" font-family="Helvetica,sans-Serif" font-size="14.00">Ámbito</text>
<polygon fill="orange" stroke="none" points="264,-55 264,-77 306,-77 306,-55 264,-55"/>
<polygon fill="none" stroke="black" points="264,-55 264,-77 306,-77 306,-55 264,-55"/>
<text text-anchor="start" x="267" y="-60.7" font-family="Helvetica,sans-Serif" font-size="14.00">Línea</text>
<polygon fill="orange" stroke="none" points="308,-55 308,-77 370,-77 370,-55 308,-55"/>
<polygon fill="none" stroke="black" points="308,-55 308,-77 370,-77 370,-55 308,-55"/>
<text text-anchor="start" x="310.88" y="-60.7" font-family="Helvetica,sans-Serif" font-size="14.00">Columna</text>
<polygon fill="orange" stroke="none" points="372,-55 372,-77 411,-77 411,-55 372,-55"/>
<polygon fill="none" stroke="black" points="372,-55 372,-77 411,-77 411,-55 372,-55"/>
<text text-anchor="start" x="375" y="-60.7" font-family="Helvetica,sans-Serif" font-size="14.00">Valor</text>
<polygon fill="orange" stroke="none" points="413,-55 413,-77 488,-77 488,-55 413,-55"/>
<polygon fill="none" stroke="black" points="413,-55 413,-77 488,-77 488,-55 413,-55"/>
<text text-anchor="start" x="444.12" y="-60.7" font-family="Helvetica,sans-Serif" font-size="14.00">Id</text>
<polygon fill="#00bfff" stroke="none" points="11,-31 11,-53 32,-53 32,-31 11,-31"/>
<polygon fill="none" stroke="black" points="11,-31 11,-53 32,-53 32,-31 11,-31"/>
<text text-anchor="start" x="17.38" y="-36.7" font-family="Helvetica,sans-Serif" font-size="14.00">1</text>
<polygon fill="none" stroke="black" points="34,-31 34,-53 126,-53 126,-31 34,-31"/>
<text text-anchor="start" x="54.88" y="-36.7" font-family="Helvetica,sans-Serif" font-size="14.00">Funcion</text>
<polygon fill="none" stroke="black" points="128,-31 128,-53 196,-53 196,-31 128,-31"/>
<text text-anchor="start" x="160.12" y="-36.7" font-family="Helvetica,sans-Serif" font-size="14.00"> </text>
<polygon fill="none" stroke="black" points="198,-31 198,-53 262,-53 262,-31 198,-31"/>
<text text-anchor="start" x="200.75" y="-36.7" font-family="Helvetica,sans-Serif" font-size="14.00">GLOBAL</text>
<polygon fill="none" stroke="black" points="264,-31 264,-53 306,-53 306,-31 264,-31"/>
<text text-anchor="start" x="280.88" y="-36.7" font-family="Helvetica,sans-Serif" font-size="14.00">0</text>
<polygon fill="none" stroke="black" points="308,-31 308,-53 370,-53 370,-31 308,-31"/>
<text text-anchor="start" x="334.88" y="-36.7" font-family="Helvetica,sans-Serif" font-size="14.00">0</text>
<polygon fill="none" stroke="black" points="372,-31 372,-53 411,-53 411,-31 372,-31"/>
<text text-anchor="start" x="389.62" y="-36.7" font-family="Helvetica,sans-Serif" font-size="14.00"> </text>
<polygon fill="none" stroke="black" points="413,-31 413,-53 488,-53 488,-31 413,-31"/>
<text text-anchor="start" x="425.75" y="-36.7" font-family="Helvetica,sans-Serif" font-size="14.00">factorial</text>
<polygon fill="#00bfff" stroke="none" points="11,-7 11,-29 32,-29 32,-7 11,-7"/>
<polygon fill="none" stroke="black" points="11,-7 11,-29 32,-29 32,-7 11,-7"/>
<text text-anchor="start" x="17.38" y="-12.7" font-family="Helvetica,sans-Serif" font-size="14.00">2</text>
<polygon fill="none" stroke="black" points="34,-7 34,-29 126,-29 126,-7 34,-7"/>
<text text-anchor="start" x="54.88" y="-12.7" font-family="Helvetica,sans-Serif" font-size="14.00">Funcion</text>
<polygon fill="none" stroke="black" points="128,-7 128,-29 196,-29 196,-7 128,-7"/>
<text text-anchor="start" x="160.12" y="-12.7" font-family="Helvetica,sans-Serif" font-size="14.00"> </text>
<polygon fill="none" stroke="black" points="198,-7 198,-29 262,-29 262,-7 198,-7"/>
<text text-anchor="start" x="200.75" y="-12.7" font-family="Helvetica,sans-Serif" font-size="14.00">GLOBAL</text>
<polygon fill="none" stroke="black" points="264,-7 264,-29 306,-29 306,-7 264,-7"/>
<text text-anchor="start" x="280.88" y="-12.7" font-family="Helvetica,sans-Serif" font-size="14.00">0</text>
<polygon fill="none" stroke="black" points="308,-7 308,-29 370,-29 370,-7 308,-7"/>
<text text-anchor="start" x="334.88" y="-12.7" font-family="Helvetica,sans-Serif" font-size="14.00">0</text>
<polygon fill="none" stroke="black" points="372,-7 372,-29 411,-29 411,-7 372,-7"/>
<text text-anchor="start" x="389.62" y="-12.7" font-family="Helvetica,sans-Serif" font-size="14.00"> </text>
<polygon fill="none" stroke="black" points="413,-7 413,-29 488,-29 488,-7 413,-7"/>
<text text-anchor="start" x="416" y="-12.7" font-family="Helvetica,sans-Serif" font-size="14.00">ackermann</text>
<polygon fill="none" stroke="black" points="8,-4 8,-104 493,-104 493,-4 8,-4"/>
</g>
</g>
</svg>
