<?xml version="1.0" encoding="UTF-8" standalone="no"?>
<!DOCTYPE svg PUBLIC "-//W3C//DTD SVG 1.1//EN"
 "http://www.w3.org/Graphics/SVG/1.1/DTD/svg11.dtd">
<!-- Generated by graphviz version 8.1.0 (20230707.0739)
 -->
<!-- Title: Table Pages: 1 -->
<svg width="439pt" height="68pt"
 viewBox="0.00 0.00 439.00 68.00" xmlns="http://www.w3.org/2000/svg" xmlns:xlink="http://www.w3.org/1999/xlink">
<g id="graph0" class="graph" transform="scale(1 1) rotate(0) translate(4 64)">
<title>Table</title>
<polygon fill="white" stroke="none" points="-4,4 -4,-64 435,-64 435,4 -4,4"/>
<!-- n1 -->
<g id="node1" class="node">
<title>n1</title>
<polygon fill="Peru" stroke="none" points="11,-31 11,-53 420,-53 420,-31 11,-31"/>
<polygon fill="none" stroke="black" points="11,-31 11,-53 420,-53 420,-31 11,-31"/>
<text text-anchor="start" x="197.88" y="-36.7" font-family="Helvetica,sans-Serif" font-size="14.00">Tabla</text>
<polygon fill="orange" stroke="none" points="11,-7 11,-29 32,-29 32,-7 11,-7"/>
<polygon fill="none" stroke="black" points="11,-7 11,-29 32,-29 32,-7 11,-7"/>
<text text-anchor="start" x="14" y="-12.7" font-family="Helvetica,sans-Serif" font-size="14.00">ID</text>
<polygon fill="orange" stroke="none" points="34,-7 34,-29 126,-29 126,-7 34,-7"/>
<polygon fill="none" stroke="black" points="34,-7 34,-29 126,-29 126,-7 34,-7"/>
<text text-anchor="start" x="36.88" y="-12.7" font-family="Helvetica,sans-Serif" font-size="14.00">Tipo Símbolo</text>
<polygon fill="orange" stroke="none" points="128,-7 128,-29 196,-29 196,-7 128,-7"/>
<polygon fill="none" stroke="black" points="128,-7 128,-29 196,-29 196,-7 128,-7"/>
<text text-anchor="start" x="130.88" y="-12.7" font-family="Helvetica,sans-Serif" font-size="14.00">Tipo Dato</text>
<polygon fill="orange" stroke="none" points="198,-7 198,-29 249,-29 249,-7 198,-7"/>
<polygon fill="none" stroke="black" points="198,-7 198,-29 249,-29 249,-7 198,-7"/>
<text text-anchor="start" x="201" y="-12.7" font-family="Helvetica,sans-Serif" font-size="14.00">Ámbito</text>
<polygon fill="orange" stroke="none" points="251,-7 251,-29 293,-29 293,-7 251,-7"/>
<polygon fill="none" stroke="black" points="251,-7 251,-29 293,-29 293,-7 251,-7"/>
<text text-anchor="start" x="254" y="-12.7" font-family="Helvetica,sans-Serif" font-size="14.00">Línea</text>
<polygon fill="orange" stroke="none" points="295,-7 295,-29 357,-29 357,-7 295,-7"/>
<polygon fill="none" stroke="black" points="295,-7 295,-29 357,-29 357,-7 295,-7"/>
<text text-anchor="start" x="297.88" y="-12.7" font-family="Helvetica,sans-Serif" font-size="14.00">Columna</text>
<polygon fill="orange" stroke="none" points="359,-7 359,-29 398,-29 398,-7 359,-7"/>
<polygon fill="none" stroke="black" points="359,-7 359,-29 398,-29 398,-7 359,-7"/>
<text text-anchor="start" x="362" y="-12.7" font-family="Helvetica,sans-Serif" font-size="14.00">Valor</text>
<polygon fill="orange" stroke="none" points="400,-7 400,-29 418,-29 418,-7 400,-7"/>
<polygon fill="none" stroke="black" points="400,-7 400,-29 418,-29 418,-7 400,-7"/>
<text text-anchor="start" x="402.62" y="-12.7" font-family="Helvetica,sans-Serif" font-size="14.00">Id</text>
<polygon fill="none" stroke="black" points="8,-4 8,-56 423,-56 423,-4 8,-4"/>
</g>
</g>
</svg>
