<?xml version="1.0" encoding="UTF-8" standalone="no"?>
<!DOCTYPE svg PUBLIC "-//W3C//DTD SVG 1.1//EN"
 "http://www.w3.org/Graphics/SVG/1.1/DTD/svg11.dtd">
<!-- Generated by graphviz version 8.1.0 (20230707.0739)
 -->
<!-- Title: Table Pages: 1 -->
<svg width="473pt" height="92pt"
 viewBox="0.00 0.00 473.00 92.00" xmlns="http://www.w3.org/2000/svg" xmlns:xlink="http://www.w3.org/1999/xlink">
<g id="graph0" class="graph" transform="scale(1 1) rotate(0) translate(4 88)">
<title>Table</title>
<polygon fill="white" stroke="none" points="-4,4 -4,-88 469,-88 469,4 -4,4"/>
<!-- n1 -->
<g id="node1" class="node">
<title>n1</title>
<polygon fill="Peru" stroke="none" points="11,-55 11,-77 454,-77 454,-55 11,-55"/>
<polygon fill="none" stroke="black" points="11,-55 11,-77 454,-77 454,-55 11,-55"/>
<text text-anchor="start" x="214.88" y="-60.7" font-family="Helvetica,sans-Serif" font-size="14.00">Tabla</text>
<polygon fill="orange" stroke="none" points="11,-31 11,-53 32,-53 32,-31 11,-31"/>
<polygon fill="none" stroke="black" points="11,-31 11,-53 32,-53 32,-31 11,-31"/>
<text text-anchor="start" x="14" y="-36.7" font-family="Helvetica,sans-Serif" font-size="14.00">ID</text>
<polygon fill="orange" stroke="none" points="34,-31 34,-53 126,-53 126,-31 34,-31"/>
<polygon fill="none" stroke="black" points="34,-31 34,-53 126,-53 126,-31 34,-31"/>
<text text-anchor="start" x="36.88" y="-36.7" font-family="Helvetica,sans-Serif" font-size="14.00">Tipo Símbolo</text>
<polygon fill="orange" stroke="none" points="128,-31 128,-53 196,-53 196,-31 128,-31"/>
<polygon fill="none" stroke="black" points="128,-31 128,-53 196,-53 196,-31 128,-31"/>
<text text-anchor="start" x="130.88" y="-36.7" font-family="Helvetica,sans-Serif" font-size="14.00">Tipo Dato</text>
<polygon fill="orange" stroke="none" points="198,-31 198,-53 262,-53 262,-31 198,-31"/>
<polygon fill="none" stroke="black" points="198,-31 198,-53 262,-53 262,-31 198,-31"/>
<text text-anchor="start" x="207.5" y="-36.7" font-family="Helvetica,sans-Serif" font-size="14.00">Ámbito</text>
<polygon fill="orange" stroke="none" points="264,-31 264,-53 306,-53 306,-31 264,-31"/>
<polygon fill="none" stroke="black" points="264,-31 264,-53 306,-53 306,-31 264,-31"/>
<text text-anchor="start" x="267" y="-36.7" font-family="Helvetica,sans-Serif" font-size="14.00">Línea</text>
<polygon fill="orange" stroke="none" points="308,-31 308,-53 370,-53 370,-31 308,-31"/>
<polygon fill="none" stroke="black" points="308,-31 308,-53 370,-53 370,-31 308,-31"/>
<text text-anchor="start" x="310.88" y="-36.7" font-family="Helvetica,sans-Serif" font-size="14.00">Columna</text>
<polygon fill="orange" stroke="none" points="372,-31 372,-53 411,-53 411,-31 372,-31"/>
<polygon fill="none" stroke="black" points="372,-31 372,-53 411,-53 411,-31 372,-31"/>
<text text-anchor="start" x="375" y="-36.7" font-family="Helvetica,sans-Serif" font-size="14.00">Valor</text>
<polygon fill="orange" stroke="none" points="413,-31 413,-53 452,-53 452,-31 413,-31"/>
<polygon fill="none" stroke="black" points="413,-31 413,-53 452,-53 452,-31 413,-31"/>
<text text-anchor="start" x="426.12" y="-36.7" font-family="Helvetica,sans-Serif" font-size="14.00">Id</text>
<polygon fill="#00bfff" stroke="none" points="11,-7 11,-29 32,-29 32,-7 11,-7"/>
<polygon fill="none" stroke="black" points="11,-7 11,-29 32,-29 32,-7 11,-7"/>
<text text-anchor="start" x="17.38" y="-12.7" font-family="Helvetica,sans-Serif" font-size="14.00">1</text>
<polygon fill="none" stroke="black" points="34,-7 34,-29 126,-29 126,-7 34,-7"/>
<text text-anchor="start" x="54.12" y="-12.7" font-family="Helvetica,sans-Serif" font-size="14.00">Variable</text>
<polygon fill="none" stroke="black" points="128,-7 128,-29 196,-29 196,-7 128,-7"/>
<text text-anchor="start" x="154.12" y="-12.7" font-family="Helvetica,sans-Serif" font-size="14.00">Int</text>
<polygon fill="none" stroke="black" points="198,-7 198,-29 262,-29 262,-7 198,-7"/>
<text text-anchor="start" x="200.75" y="-12.7" font-family="Helvetica,sans-Serif" font-size="14.00">GLOBAL</text>
<polygon fill="none" stroke="black" points="264,-7 264,-29 306,-29 306,-7 264,-7"/>
<text text-anchor="start" x="276.75" y="-12.7" font-family="Helvetica,sans-Serif" font-size="14.00">12</text>
<polygon fill="none" stroke="black" points="308,-7 308,-29 370,-29 370,-7 308,-7"/>
<text text-anchor="start" x="330.75" y="-12.7" font-family="Helvetica,sans-Serif" font-size="14.00">24</text>
<polygon fill="none" stroke="black" points="372,-7 372,-29 411,-29 411,-7 372,-7"/>
<text text-anchor="start" x="383.25" y="-12.7" font-family="Helvetica,sans-Serif" font-size="14.00">12</text>
<polygon fill="none" stroke="black" points="413,-7 413,-29 452,-29 452,-7 413,-7"/>
<text text-anchor="start" x="415.62" y="-12.7" font-family="Helvetica,sans-Serif" font-size="14.00">index</text>
<polygon fill="none" stroke="black" points="8,-4 8,-80 457,-80 457,-4 8,-4"/>
</g>
</g>
</svg>
